PathFileType        4      (X/Y/Z)      C:\Users\pc\Desktop\IMUTRC\Sujet_03\Sujet_03_velo_60.trc         
DataRate	CameraRate	NumFrames	NumMarkers	Units	OrigDataRate	OrigDataStartFrame	OrigNumFrames
60.0	60.0	4	64	mm	60.0	697	929
Frame#	Time	pHipOrigin			pRightASI			pLeftASI			pRightCSI			pLeftCSI			pRightIschialTub			pLeftIschialTub			pSacrum			pL5SpinalProcess			pL3SpinalProcess			pT12SpinalProcess			pIJ			pT4SpinalProcess			pT8SpinalProcess			pPX			pC7SpinalProcess			pTopOfHead			pRightAuricularis			pLeftAuricularis			pBackOfHead			pRightAcromion			pLeftAcromion			pRightArmLatEpicondyle			pRightArmMedEpicondyle			pLeftArmLatEpicondyle			pLeftArmMedEpicondyle			pRightUlnarStyloid			pRightRadialStyloid			pRightOlecranon			pLeftUlnarStyloid			pLeftRadialStyloid			pLeftOlecranon			pRightTopOfHand			pRightPinky			pRightBallHand			pLeftTopOfHand			pLeftPinky			pLeftBallHand			pRightGreaterTrochanter			pRightKneeLatEpicondyle			pRightKneeMedEpicondyle			pRightPatella			pLeftGreaterTrochanter			pLeftKneeLatEpicondyle			pLeftKneeMedEpicondyle			pLeftPatella			pRightTibialTub			pRightLatMalleolus			pRightMedMalleolus			pLeftTibialTub			pLeftLatMalleolus			pLeftMedMalleolus			pRightHeelFoot			pRightFirstMetatarsal			pRightFifthMetatarsal			pRightPivotFoot			pRightHeelCenter			pRightToe			pLeftHeelFoot			pLeftFirstMetatarsal			pLeftFifthMetatarsal			pLeftPivotFoot			pLeftHeelCenter			pLeftToe			
		X1	Y1	Z1	X2	Y2	Z2	X3	Y3	Z3	X4	Y4	Z4	X5	Y5	Z5	X6	Y6	Z6	X7	Y7	Z7	X8	Y8	Z8	X9	Y9	Z9	X10	Y10	Z10	X11	Y11	Z11	X12	Y12	Z12	X13	Y13	Z13	X14	Y14	Z14	X15	Y15	Z15	X16	Y16	Z16	X17	Y17	Z17	X18	Y18	Z18	X19	Y19	Z19	X20	Y20	Z20	X21	Y21	Z21	X22	Y22	Z22	X23	Y23	Z23	X24	Y24	Z24	X25	Y25	Z25	X26	Y26	Z26	X27	Y27	Z27	X28	Y28	Z28	X29	Y29	Z29	X30	Y30	Z30	X31	Y31	Z31	X32	Y32	Z32	X33	Y33	Z33	X34	Y34	Z34	X35	Y35	Z35	X36	Y36	Z36	X37	Y37	Z37	X38	Y38	Z38	X39	Y39	Z39	X40	Y40	Z40	X41	Y41	Z41	X42	Y42	Z42	X43	Y43	Z43	X44	Y44	Z44	X45	Y45	Z45	X46	Y46	Z46	X47	Y47	Z47	X48	Y48	Z48	X49	Y49	Z49	X50	Y50	Z50	X51	Y51	Z51	X52	Y52	Z52	X53	Y53	Z53	X54	Y54	Z54	X55	Y55	Z55	X56	Y56	Z56	X57	Y57	Z57	X58	Y58	Z58	X59	Y59	Z59	X60	Y60	Z60	X61	Y61	Z61	X62	Y62	Z62	X63	Y63	Z63	X64	Y64	Z64	
697	11.6	0.0	1250.01021	7.654105012890054E-14	95.95345000000002	1335.73483	130.65013000000008	76.19319999999999	1335.61859	-143.1455799999999	63.11657000000001	1411.17249	108.97197000000008	46.72717999999999	1411.11437	-116.99230999999992	-62.535379999999996	1204.38728	61.31490000000008	-70.73007	1204.32916	-51.66723999999992	-62.30291	1284.35818	4.475120000000083	-5.40501	1376.76641	-0.40682999999991537	60.26876	1477.6018	-5.579359999999913	122.45544	1568.55707	-10.63565999999991	391.3692	1605.86908	-21.503799999999924	268.91376	1709.9591	-20.922619999999913	193.94105	1651.08518	-16.15690999999991	292.33547	1521.19059	-14.936419999999925	315.23412	1744.42331	-22.72428999999991	568.10721	1839.38875	-57.24660999999992	495.98229	1784.06004	28.47801000000008	471.57257	1783.94381	-113.85390999999991	453.43963	1831.659	-37.544479999999915	323.02198	1710.07534	194.5803500000001	310.29405	1689.73391	-238.51784999999992	423.50867	1433.37371	154.94361000000006	405.43385	1432.56006	97.11582000000006	398.40152	1411.46308	-212.48080999999993	380.32671	1407.04608	-154.82737999999995	512.66227	1194.62339	118.27091000000004	560.95865	1216.06907	128.49975000000006	387.94022	1428.08494	123.55969000000006	493.89003	1173.58453	-191.61630999999994	541.77958	1197.00624	-198.93922999999995	363.06555	1403.6171	-182.25924999999995	654.7036	1063.68267	225.90616000000003	576.76685	1090.53336	169.18262000000001	552.88019	1157.95069	127.68609000000004	666.21104	1078.09603	-299.77463	580.60266	1084.72153	-248.51420999999996	542.01205	1141.91002	-202.83315999999996	35.39410000000001	1225.19366	162.7895900000001	347.83853	961.74302	104.55497000000004	345.68815	967.14803	24.75843000000004	373.23626	1000.68234	63.69775000000004	7.845979999999989	1235.71309	-169.5313299999999	301.11135	947.50402	-206.02966999999998	312.15384	939.89051	-127.16301999999996	336.0405	977.55122	-164.70749999999998	394.10076	923.44301	56.607310000000034	247.35184	528.47047	85.66650000000001	241.65624	531.31827	19.12095000000002	325.17236	886.4216	-163.54512999999997	0.929889999999994	624.01709	-97.34828999999996	17.726109999999995	628.1435	-32.720649999999964	183.24727	457.68228	31.035220000000017	346.55993	427.51884	-17.086799999999997	345.63003	404.91078	61.37301	368.52868	410.83886	19.702130000000004	222.41906	448.67393	28.884840000000015	449.37135	390.32307	14.762069999999996	-73.57787	592.45881	-27.19939999999996	60.73371	485.28851	-7.904099999999974	33.476189999999995	467.91111	-82.93492999999997	64.1627	460.87879	-46.78529999999998	-44.05374	565.43376	-31.674519999999962	124.14087	403.45782	-55.27057999999999	
698	11.617	0.0	1250.01021	7.654105012890054E-14	96.53464000000001	1335.50235	130.3595400000001	75.61201999999999	1335.73483	-143.31993999999992	63.639630000000004	1411.05625	108.91385000000008	46.37846999999999	1411.23061	-117.05042999999992	-62.30290999999999	1204.32916	61.54737000000008	-70.96255	1204.4454	-51.43476999999992	-62.30291	1284.35818	4.765710000000083	-5.34689	1376.76641	-0.23246999999991538	60.21065	1477.6018	-5.637479999999913	122.3392	1568.61519	-10.92625999999991	391.13673	1606.27591	-22.782409999999924	268.56505	1710.19158	-21.736279999999915	193.70857	1651.20142	-16.67997999999991	292.27735	1521.48118	-15.866319999999925	314.88541	1744.7139	-23.770419999999913	567.70038	1839.67934	-58.815799999999925	495.57546	1784.58311	27.02505000000008	471.10762	1784.11816	-115.24875999999992	453.03281	1832.00771	-39.05554999999991	323.25445	1710.36593	193.6504600000001	309.59663	1689.96638	-239.44773999999992	423.45055	1433.48995	154.53678000000005	405.20138	1432.50194	96.70899000000006	397.76222	1411.69556	-212.94575999999995	379.62929	1407.39479	-155.23419999999993	512.1392	1194.44903	118.38715000000005	560.4937	1215.89472	128.61598000000006	387.82398	1428.14306	123.15286000000006	493.19261	1173.81701	-191.55818999999994	541.14028	1197.23872	-198.82298999999995	362.36813	1403.84957	-182.72419999999994	654.0643	1063.62455	226.31299000000004	576.18566	1090.41713	169.53133000000003	552.35712	1157.77633	127.91856000000004	665.62986	1078.27038	-299.54215	579.96336	1084.954	-248.33985999999996	541.37275	1142.14249	-202.71691999999996	34.81291000000001	1223.85694	162.7314800000001	334.99437	946.69036	103.85755000000005	332.90211	952.09537	24.119130000000034	362.01942	984.35108	62.94221000000004	7.67162999999999	1236.99169	-169.6475599999999	310.41029	959.18582	-209.40053999999998	321.97585	951.28171	-130.65012999999996	344.46766	990.04668	-167.96212999999997	382.30273	908.85529	56.316710000000036	241.30753	511.79049	85.25967000000001	236.01876	514.40582	18.656000000000017	333.77388	897.98716	-166.45104999999998	6.1605499999999935	640.29024	-98.16194999999996	22.956759999999996	644.76536	-33.59242999999996	177.08672	441.11854	30.57027000000002	340.1669	410.60639	-18.191049999999997	339.41136	387.70774	60.21065	362.19377	393.69394	18.481650000000002	216.25851	431.99395	28.30365000000001	442.92021	372.94567	13.192869999999996	-68.52158	609.25502	-28.013059999999957	65.32506	501.50354	-8.659639999999973	37.951299999999996	484.18426	-83.57423999999997	68.63781	477.09382	-47.42459999999998	-39.11367	582.05562	-32.43005999999996	128.38351	419.32414	-55.909889999999976	
699	11.633	0.0	1250.01021	7.654105012890054E-14	97.23206000000002	1335.328	129.95271000000008	74.97271999999998	1335.85106	-143.61052999999993	64.22081	1410.94002	108.73950000000009	45.85540999999999	1411.34685	-117.10853999999992	-62.070429999999995	1204.32916	61.77984000000008	-71.25314	1204.50352	-51.14417999999992	-62.24479	1284.41629	5.114420000000083	-5.28877	1376.70829	-0.11623999999991538	60.21065	1477.6018	-5.753719999999913	122.16484	1568.61519	-11.274969999999911	390.90425	1606.74085	-24.119129999999924	268.21634	1710.42405	-22.608049999999913	193.4761	1651.31765	-17.26115999999991	292.21924	1521.71366	-16.796209999999924	314.42046	1745.00449	-24.81654999999991	567.17731	1840.02805	-60.61746999999992	495.22675	1785.16429	25.45585000000008	470.52644	1784.35064	-116.81794999999991	452.56786	1832.41454	-40.682869999999916	323.37069	1710.77276	192.6043300000001	308.84109	1690.31509	-240.37763999999993	423.27619	1433.60619	154.07184000000007	405.02702	1432.50194	96.30216000000006	397.12292	1411.98615	-213.52693999999994	378.93187	1407.74351	-155.87350999999995	511.61614	1194.39092	118.50339000000004	559.97063	1215.72036	128.67410000000007	387.64962	1428.25929	122.74603000000006	492.49519	1174.1076	-191.67442999999994	540.44286	1197.52931	-198.93922999999995	361.72882	1404.19828	-183.30537999999996	653.425	1063.56643	226.66170000000002	575.60448	1090.30089	169.76380000000003	551.77594	1157.6601	128.03480000000002	664.99055	1078.44474	-299.48403	579.26594	1085.18647	-248.28173999999999	540.67533	1142.43308	-202.77503999999996	34.40608000000001	1222.81081	162.6733600000001	321.80149	932.45136	103.50884000000005	319.593	937.74013	23.712300000000035	350.2795	968.77535	62.361030000000035	7.322919999999989	1237.9797	-169.76379999999992	319.47676	971.27444	-212.30645999999996	331.73974	963.48658	-133.67227999999997	352.60424	1003.18143	-170.92616999999998	369.8654	894.90688	56.25860000000004	233.75214	496.09853	84.85284000000001	228.92832	498.59762	18.19105000000002	342.49164	910.19202	-168.83390999999997	12.553569999999995	655.92409	-98.97560999999996	29.291669999999996	660.74791	-34.40607999999996	169.06638	426.00776	30.105320000000013	331.73974	394.27512	-19.295299999999997	331.04232	371.08588	58.99016	353.76661	377.07208	17.20304	208.18005	416.53446	27.60623000000001	434.31869	355.62639	11.565559999999994	-62.12855	625.23758	-28.710479999999958	71.60185	517.25362	-9.647649999999972	44.05373999999999	499.99246	-84.62036999999997	74.74024	492.8439	-48.52884999999998	-32.77877	597.98006	-33.185599999999965	134.42782	434.95799	-57.13036999999998	
700	11.65	0.0	1250.01021	7.654105012890054E-14	98.04571000000001	1335.21176	129.4296400000001	74.10093999999998	1335.9673	-144.0173599999999	64.97635	1410.76566	108.50702000000008	45.21609999999999	1411.40496	-117.22477999999991	-61.66360999999999	1204.27104	62.128550000000075	-71.54373	1204.56163	-50.73734999999992	-62.18667	1284.41629	5.521250000000083	-5.28877	1376.70829	8.462291379800264E-14	60.15253	1477.6018	-5.869959999999913	121.99049	1568.67331	-11.623679999999911	390.67178	1607.14768	-25.455849999999927	267.80951	1710.71464	-23.479829999999914	193.12739	1651.43389	-17.90045999999991	292.103	1522.00425	-17.842339999999925	313.95551	1745.3532	-25.92079999999991	566.65425	1840.37676	-62.535379999999925	494.81992	1785.68736	23.82854000000008	469.88714	1784.58311	-118.38714999999992	452.04479	1832.82137	-42.31017999999992	323.42881	1711.17959	191.61631000000008	307.96932	1690.72192	-241.3656499999999	423.10184	1433.83866	153.54877000000005	404.73643	1432.56006	95.83722000000006	396.36738	1412.27674	-214.10812999999993	378.23445	1408.15033	-156.45468999999994	511.03495	1194.39092	118.50339000000004	559.44757	1215.72036	128.61598000000006	387.35903	1428.43365	122.22296000000006	491.79777	1174.45631	-191.79066999999995	539.74544	1197.87802	-199.11357999999996	360.97329	1404.54699	-183.94468999999995	652.78569	1063.62455	226.83605000000003	574.96518	1090.35901	169.93816000000004	551.19476	1157.6601	128.09292000000002	664.29313	1078.73533	-299.42592	578.62663	1085.47706	-248.33985999999996	539.91979	1142.78179	-202.89127999999997	34.231730000000006	1221.93903	162.55712000000008	308.89921	919.54908	103.04390000000004	306.45824	924.54726	23.24735000000004	338.65583	954.47823	61.547370000000036	6.741729999999989	1238.79336	-169.82191999999992	328.25263	983.76989	-214.57306999999997	341.15492	976.2145	-135.99701999999996	360.3921	1016.72302	-173.25089999999997	357.5443	881.94648	56.026120000000034	224.62756	482.092	84.62037000000001	220.09432	484.41673	17.958580000000016	351.15128	922.91994	-170.69368999999998	20.16707999999999	670.27933	-99.78926999999996	36.78894	675.5681	-35.21973999999996	159.24437	412.64053	29.814730000000015	321.33655	379.16434	-20.167079999999995	320.63913	355.80075	58.06027	343.24718	361.61259	16.21503	198.18369	402.7604	27.199400000000015	423.56679	339.29513	10.286949999999994	-54.34069	639.82529	-29.117309999999957	79.33159	531.66698	-11.158729999999974	51.37664999999999	514.63829	-85.95708999999997	82.29563	507.31538	-50.09804999999998	-25.049020000000002	612.56777	-33.883019999999966	141.86698	449.48758	-59.16451999999998	
